<svg id="Layer_1" height="512" viewBox="0 0 512 512" width="512" xmlns="http://www.w3.org/2000/svg" data-name="Layer 1"><path d="m479.69 205.28a18.457 18.457 0 0 1 0 26.11l-231.01 231.01c-50.32 50.32-132.26 51.89-183.07 2.06a129.41 129.41 0 0 1 -.9-183.71l133.93-133.93 50.76-50.76 60.53-60.53a18.887 18.887 0 1 1 26.71 26.71l-36.2 36.2a18.045 18.045 0 1 0 25.52 25.52l107.43-107.43a18.887 18.887 0 1 1 26.71 26.71l-169.75 169.76a18.045 18.045 0 1 0 25.52 25.52l45.11-45.11a18.887 18.887 0 0 1 26.71 26.71l-88.59 88.59a18.049 18.049 0 1 0 25.53 25.52l128.95-128.95a18.463 18.463 0 0 1 26.11 0z" fill="#ed6337"/><path d="m105.61 464.46a129.41 129.41 0 0 1 -.9-183.71l133.93-133.93 50.76-50.76 52.109-52.109a18.876 18.876 0 0 0 -31.579-8.421l-60.53 60.53-50.76 50.76-133.93 133.93a129.41 129.41 0 0 0 .9 183.71c30.077 29.5 71.061 40.979 109.938 35a127.233 127.233 0 0 1 -69.938-35z" fill="#c24e38"/><path d="m243.76 329.89a97.575 97.575 0 0 1 1.27 81.79 21.9 21.9 0 1 0 -21.38 30.49 97.29 97.29 0 0 1 -159.91-100.58l.07.02a21.008 21.008 0 0 0 1.5 1.66 21.888 21.888 0 1 0 19.27-37.04c.88-.97 1.8-1.92 2.74-2.86a97.287 97.287 0 0 1 130.67-6.28l-.13.16a21.245 21.245 0 0 0 -3.28 2.68 20.913 20.913 0 0 0 29.18 29.96z" fill="#fadf4a"/><path d="m245.03 411.68v.01a96.716 96.716 0 0 1 -20.13 29.26c-.41.41-.83.82-1.25 1.22a21.883 21.883 0 1 1 21.38-30.49z" fill="#dcbe3f"/><path d="m243.76 329.89a20.913 20.913 0 0 1 -29.18-29.96 21.245 21.245 0 0 1 3.28-2.68l.13-.16q3.57 2.94 6.91 6.28a97.008 97.008 0 0 1 18.86 26.52z" fill="#dcbe3f"/><path d="m96.26 312.31a21.888 21.888 0 0 1 -30.95 30.96 21.008 21.008 0 0 1 -1.5-1.66l-.07-.02a96.5 96.5 0 0 1 20.84-35.36 21.8 21.8 0 0 1 11.68 6.08z" fill="#dcbe3f"/><circle cx="162.645" cy="375.945" fill="#dcbe3f" r="14.107"/><g fill="#284268"><path d="m449.333 201.036-128.949 128.95a12.048 12.048 0 0 1 -17.038-17.038l88.586-88.586a24.887 24.887 0 1 0 -35.195-35.195l-45.109 45.11a12.048 12.048 0 0 1 -17.038-17.038l169.755-169.755a24.887 24.887 0 1 0 -35.2-35.195l-107.427 107.433a12.047 12.047 0 1 1 -17.038-17.037l36.208-36.207a24.887 24.887 0 0 0 -35.2-35.195l-60.5 60.5-.034.034-50.754 50.756-.014.015-133.923 133.924a134.759 134.759 0 0 0 95.137 230.41 137.394 137.394 0 0 0 97.327-40.281l231.003-231.008a24.464 24.464 0 1 0 -34.6-34.6zm26.112 26.111-231.007 231.008c-48.238 48.245-126.578 49.15-174.626 2.022a123.409 123.409 0 0 1 -.865-175.177l161.709-161.711 83.521-83.521a12.887 12.887 0 0 1 18.223 18.225l-36.2 36.207a24.047 24.047 0 1 0 34 34.007l107.435-107.433a12.887 12.887 0 1 1 18.225 18.226l-169.76 169.754a24.047 24.047 0 0 0 34.008 34.008l45.11-45.11a12.887 12.887 0 1 1 18.225 18.225l-88.586 88.586a24.047 24.047 0 0 0 34.007 34.008l128.949-128.95a12.464 12.464 0 1 1 17.628 17.626z"/><path d="m230.459 162.46a5.978 5.978 0 0 0 4.241-1.76l9.516-9.515a6 6 0 0 0 -8.485-8.486l-9.515 9.516a6 6 0 0 0 4.242 10.242z"/><path d="m153.113 239.806a5.98 5.98 0 0 0 4.242-1.757l56.707-56.707a6 6 0 1 0 -8.484-8.486l-56.707 56.707a6 6 0 0 0 4.242 10.243z"/><path d="m132.55 260.37a6.009 6.009 0 1 0 -4.24-1.76 6.012 6.012 0 0 0 4.24 1.76z"/><path d="m268.717 246.357a6 6 0 0 0 -8.485 0l-15.077 15.077a6 6 0 1 0 8.485 8.485l15.077-15.077a6 6 0 0 0 0-8.485z"/><path d="m230.087 276.5-.244.243a6 6 0 0 0 8.469 8.5l.244-.243a6 6 0 0 0 -8.469-8.5z"/><path d="m287.864 167.248a5.982 5.982 0 0 0 4.236-1.748l.169-.168a6 6 0 0 0 -8.473-8.5l-.169.169a6 6 0 0 0 4.236 10.248z"/><path d="m197.1 252.016a6 6 0 0 0 8.484 0l67.242-67.243a6 6 0 0 0 -8.484-8.485l-67.242 67.242a6 6 0 0 0 0 8.486z"/><path d="m295.1 362.262-8.856 8.855a6 6 0 0 0 8.485 8.486l8.855-8.856a6 6 0 1 0 -8.484-8.485z"/><path d="m272.067 385.292-.525.525a6 6 0 1 0 8.48 8.49l.526-.525a6 6 0 0 0 -8.481-8.49z"/><path d="m278.771 470.934-9.116 9.117a6 6 0 0 0 8.487 8.485l9.116-9.117a6 6 0 0 0 -8.487-8.485z"/><path d="m387.445 362.262-80.234 80.238a6 6 0 1 0 8.484 8.485l80.235-80.234a6 6 0 0 0 -8.485-8.485z"/><path d="m433.617 316.088-15.305 15.306a6 6 0 0 0 8.487 8.485l15.301-15.305a6 6 0 0 0 -8.487-8.486z"/><path d="m201.34 93.581a5.986 5.986 0 0 0 4.243-1.757l19.789-19.79a6 6 0 0 0 -8.486-8.485l-19.786 19.789a6 6 0 0 0 4.243 10.243z"/><path d="m76.236 218.685a5.981 5.981 0 0 0 4.243-1.758l94.576-94.575a6 6 0 0 0 -8.485-8.486l-94.576 94.576a6 6 0 0 0 4.242 10.243z"/><path d="m36.436 258.485a5.986 5.986 0 0 0 4.243-1.757l9.63-9.63a6 6 0 0 0 -8.487-8.486l-9.63 9.631a6 6 0 0 0 4.244 10.242z"/><path d="m442.251 92.608-19.059 19.059a6 6 0 0 0 8.485 8.485l19.058-19.058a6 6 0 1 0 -8.484-8.486z"/><path d="m480.854 54.006-9.543 9.543a6 6 0 1 0 8.484 8.485l9.543-9.543a6 6 0 0 0 -8.484-8.485z"/><path d="m156.11 268.877a102.606 102.606 0 0 0 -73.031 30.251c-.759.759-1.5 1.531-2.233 2.31a5.993 5.993 0 0 0 -1.435 1.55 103.282 103.282 0 0 0 148.289 143.612c.081-.074.159-.152.237-.231.4-.391.808-.779 1.208-1.178a102.769 102.769 0 0 0 21.119-30.58 6.094 6.094 0 0 0 .42-.937 103.283 103.283 0 0 0 -94.572-144.8zm-69.5 44.135a15.886 15.886 0 1 1 -15.964 27.008 90.645 90.645 0 0 1 15.962-27.008zm134.89 122.809a15.9 15.9 0 1 1 16.813-24.008 90.845 90.845 0 0 1 -16.813 24.008zm21.73-36.519a27.885 27.885 0 1 0 -31.788 45.434 91.28 91.28 0 0 1 -144.38-92.663 27.891 27.891 0 0 0 33.445-44 28.048 28.048 0 0 0 -5.123-4.049 91.249 91.249 0 0 1 113.28-6.493 26.916 26.916 0 0 0 32.443 41.409 91.837 91.837 0 0 1 2.122 60.36zm-24.406-74.034a14.894 14.894 0 0 1 -.824-20.185c.9.828 1.788 1.662 2.656 2.53a90.987 90.987 0 0 1 15.359 20.45 14.937 14.937 0 0 1 -17.192-2.795z"/><path d="m148.429 361.726a20.106 20.106 0 1 0 28.432 0 19.971 19.971 0 0 0 -28.432 0zm19.948 19.949a8.107 8.107 0 1 1 2.374-5.732 8.118 8.118 0 0 1 -2.374 5.732z"/><path d="m144.106 428.673a11.331 11.331 0 0 0 16.025 16.027 11.331 11.331 0 1 0 -16.025-16.023z"/><path d="m99.985 386.327a8.666 8.666 0 1 0 0 12.251 8.665 8.665 0 0 0 0-12.251z"/><path d="m160.237 319.6a8.634 8.634 0 0 0 6.126-2.534 8.672 8.672 0 1 0 -6.127 2.535z"/></g></svg>